# xmcd
#
# Track frame offsets: 
#        150
#        28587
#        38664
#        57164
#        79353
#        88508
#        108124
#        126770
#        147642
#        157530
#        171379
#        189189
#        211434
#        232794
#
# Disc length: 3942 seconds
#
# Revision: 0
# Processed by: cddbd v1.5.2PL0 Copyright (c) Steve Scherf et al.
# Submitted via: ExactAudioCopy v0.99pb5
#
DISCID=ac0f640e
DTITLE=Ryan Bingham - Mescalito
DYEAR=2007
DGENRE=Alt.Country
TTITLE0=Southside Of Heaven
TTITLE1=The Other Side
TTITLE2=Bread and Water
TTITLE3=Don't Wait For Me
TTITLE4=Boracho Station
TTITLE5=Sunshine
TTITLE6=Ghost Of Travelin' Jones
TTITLE7=Hard Times
TTITLE8=Dollar A Day
TTITLE9=Take It Easy Mama
TTITLE10=Long Way From Georgia
TTITLE11=Ever Wonder Why
TTITLE12=Sunrise
TTITLE13=For What It's Worth 
EXTD=
EXTT0=
EXTT1=
EXTT2=
EXTT3=
EXTT4=
EXTT5=
EXTT6=
EXTT7=
EXTT8=
EXTT9=
EXTT10=
EXTT11=
EXTT12=
EXTT13=
PLAYORDER=
